<mxfile host="app.diagrams.net" modified="2022-02-01T11:59:35.638Z" agent="5.0 (Windows NT 10.0; Win64; x64) AppleWebKit/537.36 (KHTML, like Gecko) Chrome/97.0.4692.71 Safari/537.36" etag="AUepgWGdnDgJH0bHh-CW" version="16.5.2" type="github">
  <diagram id="R2lEEEUBdFMjLlhIrx00" name="Page-1">
    <mxGraphModel dx="1433" dy="1593" grid="1" gridSize="10" guides="1" tooltips="1" connect="1" arrows="1" fold="1" page="1" pageScale="1" pageWidth="850" pageHeight="1100" math="0" shadow="0" extFonts="Permanent Marker^https://fonts.googleapis.com/css?family=Permanent+Marker">
      <root>
        <mxCell id="0" />
        <mxCell id="1" parent="0" />
        <mxCell id="XqF0fUAeafnoUtxTJQTS-1" value="Citizen" style="swimlane;childLayout=stackLayout;horizontal=1;startSize=30;horizontalStack=0;rounded=1;fontSize=14;fontStyle=0;strokeWidth=2;resizeParent=0;resizeLast=1;shadow=0;dashed=0;align=center;fillColor=#A3A3A3;" vertex="1" parent="1">
          <mxGeometry x="-400" y="-160" width="160" height="120" as="geometry" />
        </mxCell>
        <mxCell id="XqF0fUAeafnoUtxTJQTS-2" value="SIN Citizen&#xa;Name Citizen&#xa;Telephone Citizen" style="align=left;strokeColor=none;fillColor=none;spacingLeft=4;fontSize=12;verticalAlign=top;resizable=0;rotatable=0;part=1;" vertex="1" parent="XqF0fUAeafnoUtxTJQTS-1">
          <mxGeometry y="30" width="160" height="90" as="geometry" />
        </mxCell>
        <mxCell id="XqF0fUAeafnoUtxTJQTS-5" value="Country" style="swimlane;childLayout=stackLayout;horizontal=1;startSize=30;horizontalStack=0;rounded=1;fontSize=14;fontStyle=0;strokeWidth=2;resizeParent=0;resizeLast=1;shadow=0;dashed=0;align=center;fillColor=#A3A3A3;" vertex="1" parent="1">
          <mxGeometry x="-110" y="-90" width="160" height="120" as="geometry" />
        </mxCell>
        <mxCell id="XqF0fUAeafnoUtxTJQTS-6" value="County_ID County&#xa;County_name County&#xa;" style="align=left;strokeColor=none;fillColor=none;spacingLeft=4;fontSize=12;verticalAlign=top;resizable=0;rotatable=0;part=1;" vertex="1" parent="XqF0fUAeafnoUtxTJQTS-5">
          <mxGeometry y="30" width="160" height="90" as="geometry" />
        </mxCell>
        <mxCell id="XqF0fUAeafnoUtxTJQTS-7" value="Pole" style="swimlane;childLayout=stackLayout;horizontal=1;startSize=30;horizontalStack=0;rounded=1;fontSize=14;fontStyle=0;strokeWidth=2;resizeParent=0;resizeLast=1;shadow=0;dashed=0;align=center;fillColor=#A3A3A3;" vertex="1" parent="1">
          <mxGeometry x="-110" y="120" width="160" height="120" as="geometry" />
        </mxCell>
        <mxCell id="XqF0fUAeafnoUtxTJQTS-8" value="County_ID County&#xa;Pole_ID Pole&#xa;Pole_address Pole" style="align=left;strokeColor=none;fillColor=none;spacingLeft=4;fontSize=12;verticalAlign=top;resizable=0;rotatable=0;part=1;" vertex="1" parent="XqF0fUAeafnoUtxTJQTS-7">
          <mxGeometry y="30" width="160" height="90" as="geometry" />
        </mxCell>
        <mxCell id="XqF0fUAeafnoUtxTJQTS-15" value="Candidate" style="swimlane;childLayout=stackLayout;horizontal=1;startSize=30;horizontalStack=0;rounded=1;fontSize=14;fontStyle=0;strokeWidth=2;resizeParent=0;resizeLast=1;shadow=0;dashed=0;align=center;fillColor=#A3A3A3;" vertex="1" parent="1">
          <mxGeometry x="190" y="-90" width="210" height="150" as="geometry" />
        </mxCell>
        <mxCell id="XqF0fUAeafnoUtxTJQTS-16" value="SIN Citizen OR Candidate&#xa;Name Citizen OR Candidate&#xa;Telephone Citizen OR Candidate&#xa;Age Candidate&#xa;Gender Candidate&#xa;&#xa;County_name County (?)" style="align=left;strokeColor=none;fillColor=none;spacingLeft=4;fontSize=12;verticalAlign=top;resizable=0;rotatable=0;part=1;" vertex="1" parent="XqF0fUAeafnoUtxTJQTS-15">
          <mxGeometry y="30" width="210" height="120" as="geometry" />
        </mxCell>
        <mxCell id="XqF0fUAeafnoUtxTJQTS-19" value="Party" style="swimlane;childLayout=stackLayout;horizontal=1;startSize=30;horizontalStack=0;rounded=1;fontSize=14;fontStyle=0;strokeWidth=2;resizeParent=0;resizeLast=1;shadow=0;dashed=0;align=center;fillColor=#A3A3A3;" vertex="1" parent="1">
          <mxGeometry x="530" y="30" width="160" height="120" as="geometry" />
        </mxCell>
        <mxCell id="XqF0fUAeafnoUtxTJQTS-20" value="Party_name Party&#xa;Party_address Party&#xa;Party_telephone Party" style="align=left;strokeColor=none;fillColor=none;spacingLeft=4;fontSize=12;verticalAlign=top;resizable=0;rotatable=0;part=1;" vertex="1" parent="XqF0fUAeafnoUtxTJQTS-19">
          <mxGeometry y="30" width="160" height="90" as="geometry" />
        </mxCell>
        <mxCell id="XqF0fUAeafnoUtxTJQTS-21" value="Leader" style="swimlane;childLayout=stackLayout;horizontal=1;startSize=30;horizontalStack=0;rounded=1;fontSize=14;fontStyle=0;strokeWidth=2;resizeParent=0;resizeLast=1;shadow=0;dashed=0;align=center;fillColor=#A3A3A3;" vertex="1" parent="1">
          <mxGeometry x="190" y="120" width="180" height="120" as="geometry" />
        </mxCell>
        <mxCell id="XqF0fUAeafnoUtxTJQTS-22" value="Leader_date_elected Leader" style="align=left;strokeColor=none;fillColor=none;spacingLeft=4;fontSize=12;verticalAlign=top;resizable=0;rotatable=0;part=1;" vertex="1" parent="XqF0fUAeafnoUtxTJQTS-21">
          <mxGeometry y="30" width="180" height="90" as="geometry" />
        </mxCell>
        <mxCell id="XqF0fUAeafnoUtxTJQTS-24" value="Contributor_Citizen" style="swimlane;childLayout=stackLayout;horizontal=1;startSize=30;horizontalStack=0;rounded=1;fontSize=14;fontStyle=0;strokeWidth=2;resizeParent=0;resizeLast=1;shadow=0;dashed=0;align=center;fillColor=#A3A3A3;" vertex="1" parent="1">
          <mxGeometry x="-400" y="120" width="160" height="120" as="geometry" />
        </mxCell>
        <mxCell id="XqF0fUAeafnoUtxTJQTS-25" value="Amount Contributor_Citizen" style="align=left;strokeColor=none;fillColor=none;spacingLeft=4;fontSize=12;verticalAlign=top;resizable=0;rotatable=0;part=1;" vertex="1" parent="XqF0fUAeafnoUtxTJQTS-24">
          <mxGeometry y="30" width="160" height="90" as="geometry" />
        </mxCell>
        <mxCell id="XqF0fUAeafnoUtxTJQTS-33" value="" style="triangle;whiteSpace=wrap;html=1;fillColor=#FFFFFF;rotation=-90;align=center;" vertex="1" parent="1">
          <mxGeometry x="-310" y="620" width="60" height="80" as="geometry" />
        </mxCell>
        <mxCell id="XqF0fUAeafnoUtxTJQTS-34" value="&lt;b&gt;&lt;font style=&quot;font-size: 24px&quot;&gt;isa&lt;/font&gt;&lt;/b&gt;" style="text;html=1;align=center;verticalAlign=middle;resizable=0;points=[];autosize=1;strokeColor=none;fillColor=none;fontSize=14;" vertex="1" parent="1">
          <mxGeometry x="-305" y="665" width="50" height="30" as="geometry" />
        </mxCell>
        <mxCell id="XqF0fUAeafnoUtxTJQTS-37" value="" style="endArrow=none;html=1;rounded=0;fontSize=24;entryX=0.5;entryY=1;entryDx=0;entryDy=0;exitX=0.5;exitY=0;exitDx=0;exitDy=0;" edge="1" parent="1" source="XqF0fUAeafnoUtxTJQTS-24" target="XqF0fUAeafnoUtxTJQTS-2">
          <mxGeometry width="50" height="50" relative="1" as="geometry">
            <mxPoint x="-350" y="100" as="sourcePoint" />
            <mxPoint x="-300" y="50" as="targetPoint" />
          </mxGeometry>
        </mxCell>
      </root>
    </mxGraphModel>
  </diagram>
</mxfile>
